<?xml version="1.0" encoding="UTF-8"?>
<svg data-bbox="2.863 5.726 369.27 369.271" height="500" viewBox="0 0 375 375" width="500" xmlns="http://www.w3.org/2000/svg" data-type="ugc">
    <g>
        <defs>
            <clipPath id="0a282197-4188-4aeb-9e40-93d0273832ad">
                <path d="M58.316 59h262.727v262.727H58.316Zm0 0"/>
            </clipPath>
            <clipPath id="e55e6b01-55ad-4f5f-b2f1-061061db248e">
                <path d="M189.68 59c-72.551 0-131.364 58.813-131.364 131.363 0 72.551 58.813 131.364 131.364 131.364 72.547 0 131.363-58.813 131.363-131.364C321.043 117.813 262.227 59 189.68 59m0 0"/>
            </clipPath>
            <clipPath id="b223153c-1917-48b0-8694-3f5faf286d47">
                <path d="M58.316 59h262.5v262.5h-262.5Zm0 0"/>
            </clipPath>
            <clipPath id="c99693a9-7611-4fe4-927f-978e6caa4d02">
                <path d="M189.676 59c-72.547 0-131.36 58.813-131.36 131.363 0 72.547 58.813 131.36 131.36 131.36 72.55 0 131.363-58.813 131.363-131.36C321.04 117.813 262.227 59 189.676 59m0 0"/>
            </clipPath>
            <clipPath id="08c47a68-836a-40dc-a40d-c791a4ce355d">
                <path d="M25.234 28.098h324.528v324.527H25.234Zm0 0"/>
            </clipPath>
            <clipPath id="7fc7727e-beca-4c83-b2d2-85abda949ea0">
                <path d="M187.5 28.098c-89.617 0-162.266 72.648-162.266 162.265S97.883 352.625 187.5 352.625s162.262-72.645 162.262-162.262S277.117 28.098 187.5 28.098m0 0"/>
            </clipPath>
            <clipPath id="5b34b731-449b-423d-9a7e-45497c0982a2">
                <path d="M44.719 47.598h285.527v285.527H44.72Zm0 0"/>
            </clipPath>
            <clipPath id="d0200b34-db9b-4f82-8ee5-887d206769f1">
                <path d="M187.484 47.598c-78.847 0-142.765 63.918-142.765 142.761 0 78.848 63.918 142.766 142.765 142.766 78.844 0 142.762-63.918 142.762-142.766 0-78.843-63.918-142.761-142.762-142.761m0 0"/>
            </clipPath>
            <clipPath id="7f73a5b2-a476-4a1b-bbd2-af87a1698cf4">
                <path d="M2.863 5.727h369v369h-369Zm0 0"/>
            </clipPath>
            <clipPath id="45681dac-6a2a-420d-899b-5579fe4151c8">
                <path d="M187.496 5.727C85.527 5.727 2.863 88.39 2.863 190.359c0 101.973 82.664 184.637 184.633 184.637 101.973 0 184.637-82.664 184.637-184.637 0-101.968-82.664-184.632-184.637-184.632m0 0"/>
            </clipPath>
            <clipPath id="0eba5ce5-5877-47b8-9ee9-71f957440ebd">
                <path d="M92.805 83.836h189.75v208.5H92.805Zm0 0"/>
            </clipPath>
            <clipPath id="b2cbbb52-c48c-4f41-9d5c-1308cda0b747">
                <path d="M93 83.836h187v208.5H93Zm0 0"/>
            </clipPath>
        </defs>
        <g clip-path="url(#0a282197-4188-4aeb-9e40-93d0273832ad)">
            <g clip-path="url(#e55e6b01-55ad-4f5f-b2f1-061061db248e)">
                <path d="M58.316 59h262.727v262.727H58.316Zm0 0" fill="#ffffff"/>
            </g>
        </g>
        <g clip-path="url(#b223153c-1917-48b0-8694-3f5faf286d47)">
            <g clip-path="url(#c99693a9-7611-4fe4-927f-978e6caa4d02)">
                <path stroke-width="45" stroke="#ffffff" d="M189.676 59c-72.547 0-131.36 58.812-131.36 131.363 0 72.547 58.813 131.36 131.36 131.36 72.551 0 131.363-58.813 131.363-131.36C321.04 117.813 262.227 59 189.676 59Zm0 0" fill="none"/>
            </g>
        </g>
        <g clip-path="url(#08c47a68-836a-40dc-a40d-c791a4ce355d)">
            <g clip-path="url(#7fc7727e-beca-4c83-b2d2-85abda949ea0)">
                <path stroke-width="45" stroke="#ffffff" d="M187.5 28.098c-89.617 0-162.266 72.649-162.266 162.266S97.883 352.626 187.5 352.626s162.262-72.645 162.262-162.262S277.117 28.098 187.5 28.098Zm0 0" fill="none"/>
            </g>
        </g>
        <path stroke-width="6.976" stroke="#0b4374" d="m106.722 299.4 8.906 5.355q4.576 2.748 6.45 5.422 1.891 2.667 1.5 5.726-.374 3.055-2.805 7.098l-7.684 12.781q-2.453 4.09-4.996 5.887-2.52 1.794-5.777 1.437-3.239-.356-7.762-3.074l-9-5.41Zm-8.926 35.242q1.687 1.012 2.793 1a2.58 2.58 0 0 0 1.883-.82q.783-.802 1.879-2.63l9.227-15.347q1.02-1.7 1.312-2.738a2.37 2.37 0 0 0-.242-1.954q-.546-.92-2.234-1.933l-1.176-.707-14.664 24.394Zm0 0" fill="none"/>
        <path stroke-width="6.976" stroke="#0b4374" d="M136.293 359.293q-4.43-1.32-6.575-3.524-2.147-2.204-2.363-5.304c-.136-2.074.223-4.555 1.078-7.434l8.106-27.18 8.606 2.567-8.493 28.484q-.714 2.386-.527 3.98.194 1.595 2.035 2.145 1.852.55 2.855-.687 1.002-1.241 1.711-3.625l8.493-28.484 8.652 2.578-8.102 27.18q-1.289 4.318-3.191 6.804-1.897 2.469-4.88 3.145-2.981.673-7.405-.645Zm0 0" fill="none"/>
        <path stroke-width="6.976" stroke="#0b4374" d="m190.215 325.272 9.05-.738 2.84 34.836 9.407-.766.5 6.121-18.457 1.508Zm0 0" fill="none"/>
        <path stroke-width="6.976" stroke="#0b4374" d="m223.16 320.317 9.867-3.09 19.59 36.93-7.989 2.5-3.902-7.864-5.754 1.801 1.227 8.7-8.176 2.562Zm15.128 23.543-6.867-14.645 2.692 15.95Zm0 0" fill="none"/>
        <path stroke-width="6.976" stroke="#0b4374" d="M280.16 340.608q-5.73 3.474-9.96 1.922c-2.82-1.04-5.383-3.457-7.68-7.246l-7.68-12.668c-2.348-3.879-3.328-7.285-2.937-10.227q.579-4.419 6.351-7.918 5.508-3.34 9.41-2.082 3.904 1.255 6.852 6.113l1.836 3.032-7.586 4.594-2.125-3.504q-1.238-2.046-2.328-2.86c-.727-.554-1.645-.496-2.746.172-1.102.668-1.59 1.492-1.473 2.469q.177 1.459 1.414 3.504l10.016 16.523c.844 1.39 1.668 2.348 2.48 2.871q1.207.775 2.817-.203 1.61-.974 1.398-2.351c-.148-.926-.64-2.086-1.484-3.477l-2.235-3.684 7.586-4.597 1.84 3.039q3 4.945 2.371 9.093-.631 4.15-6.136 7.485Zm0 0" fill="none"/>
        <path d="m106.723 299.396 8.906 5.36q4.56 2.751 6.454 5.421 1.903 2.672 1.515 5.719-.392 3.048-2.812 7.094l-7.688 12.796q-2.454 4.078-4.984 5.875-2.534 1.794-5.781 1.438-3.252-.344-7.782-3.063l-9-5.421Zm-8.922 35.25q1.7 1.013 2.797 1a2.55 2.55 0 0 0 1.875-.828q.78-.815 1.875-2.625l9.219-15.36q1.031-1.687 1.313-2.719a2.44 2.44 0 0 0-.235-1.953q-.532-.918-2.219-1.937l-1.187-.703-14.656 24.39Zm0 0" fill="#ffffff"/>
        <path d="M136.295 359.284q-4.423-1.33-6.578-3.531-2.144-2.205-2.36-5.297-.222-3.106 1.079-7.438l8.093-27.172 8.61 2.563-8.485 28.484q-.72 2.39-.53 3.985.185 1.58 2.046 2.14 1.841.55 2.844-.687c.664-.82 1.238-2.032 1.719-3.625l8.484-28.485 8.656 2.578-8.094 27.172c-.867 2.887-1.933 5.149-3.203 6.797q-1.891 2.483-4.875 3.156-2.988.67-7.406-.64m0 0" fill="#ffffff"/>
        <path d="m190.18 325.23 9.046-.733 2.844 34.828 9.406-.766.5 6.125-18.453 1.5Zm0 0" fill="#ffffff"/>
        <path d="m223.142 320.309 9.875-3.079 19.609 36.922-8 2.5-3.906-7.875-5.75 1.813 1.234 8.703-8.187 2.563Zm15.14 23.546-6.875-14.656 2.703 15.953Zm0 0" fill="#ffffff"/>
        <path d="M280.157 340.61q-5.719 3.456-9.968 1.922-4.236-1.546-7.672-7.25l-7.688-12.657c-2.344-3.875-3.32-7.285-2.937-10.234q.58-4.418 6.36-7.922 5.502-3.34 9.405-2.094 3.905 1.253 6.86 6.11l1.844 3.031-7.61 4.61-2.14-3.516q-1.22-2.028-2.297-2.86-1.091-.825-2.75.188-1.64.986-1.47 2.453.175 1.47 1.423 3.516l10.015 16.53c.844 1.388 1.664 2.34 2.47 2.86q1.217.786 2.827-.187 1.593-.983 1.375-2.36c-.148-.925-.64-2.082-1.484-3.468l-2.235-3.688 7.61-4.61 1.828 3.032q3.012 4.956 2.375 9.11-.645 4.142-6.14 7.484m0 0" fill="#ffffff"/>
        <path stroke-width="6.989" stroke="#0b4374" d="M82.138 103.024q1.325-1.477 1.777-2.438.45-.961.098-1.894c-.238-.625-.805-1.336-1.692-2.13l-23.644-21.14 6.062-6.781 23.95 21.414q2.618 2.342 3.668 4.445 1.046 2.103.476 4.422-.567 2.304-3.008 5.035l-2.953 3.301Zm0 0" fill="none"/>
        <path stroke-width="6.989" stroke="#0b4374" d="M109.965 84.16q-3.67 2.819-6.719 3.27-3.051.45-5.691-1.196-2.654-1.657-5.402-5.238L74.84 58.46l7.133-5.48 18.144 23.616c1.012 1.317 1.989 2.239 2.922 2.762.942.52 1.918.387 2.938-.394q1.534-1.178 1.117-2.72c-.281-1.026-.926-2.202-1.938-3.519L87.012 49.11l7.176-5.512 17.308 22.536c1.836 2.386 3.051 4.582 3.653 6.582q.889 2.995-.313 5.808-1.199 2.82-4.87 5.637Zm0 0" fill="none"/>
        <path stroke-width="6.989" stroke="#0b4374" d="m107.133 35.836 9.46-4.34q4.864-2.232 8.133-2.273c2.188-.035 4.047.629 5.586 2 1.543 1.355 2.973 3.469 4.285 6.332l6.23 13.582q1.993 4.34 2.044 7.457.058 3.1-2.074 5.594-2.127 2.479-6.934 4.683l-9.563 4.387Zm24.101 27.305q1.794-.821 2.41-1.746.61-.923.383-2.02-.217-1.1-1.11-3.039l-7.48-16.309c-.554-1.203-1.058-2.082-1.523-2.636a2.38 2.38 0 0 0-1.75-.903q-1.072-.065-2.863.754l-1.254.574 11.89 25.918Zm0 0" fill="none"/>
        <path stroke-width="6.989" stroke="#0b4374" d="M163.338 59.649q-6.522 1.358-10.004-1.414c-2.324-1.856-3.937-4.973-4.851-9.344l-3.121-14.98c-.914-4.38-.672-7.868.722-10.454q2.092-3.897 8.614-5.257c4.383-.914 7.738-.453 10.074 1.386q3.511 2.739 4.871 9.262l3.125 14.98q1.365 6.558-.75 10.512-2.107 3.938-8.68 5.309Zm-1.316-6.317q1.893-.397 2.226-1.785.328-1.4-.125-3.586l-4.046-19.41q-.47-2.239-1.32-3.351c-.571-.75-1.489-.996-2.75-.73-1.192.245-1.903.839-2.13 1.773q-.333 1.388.125 3.574l4.047 19.41c.305 1.46.727 2.574 1.266 3.352q.814 1.147 2.707.753Zm0 0" fill="none"/>
        <path stroke-width="6.989" stroke="#0b4374" d="M208.177 58.078c-4.434-.59-7.43-2.171-8.98-4.75-1.555-2.582-2.036-6.078-1.454-10.48l1.953-14.711q.897-6.756 4.118-9.832 3.23-3.089 9.933-2.2c4.262.563 7.149 1.993 8.657 4.278 1.507 2.285 2.011 5.313 1.511 9.074l-.465 3.52-8.808-1.168.539-4.074q.315-2.372-.02-3.696c-.226-.886-.976-1.418-2.257-1.585q-1.918-.257-2.7 1.003-.778 1.25-1.093 3.625l-2.547 19.188q-.318 2.425.136 3.8.458 1.362 2.328 1.61 1.87.246 2.567-.96.702-1.226 1.023-3.645l.567-4.282 8.808 1.168-.468 3.532q-.762 5.742-3.856 8.59-3.095 2.84-9.492 1.995Zm0 0" fill="none"/>
        <path stroke-width="6.989" stroke="#0b4374" d="m238.696 21.755 8.61 2.941-11.325 33.137 8.945 3.058-1.988 5.824-17.555-6Zm0 0" fill="none"/>
        <path stroke-width="6.989" stroke="#0b4374" d="M257.057 75.003q-3.996-2.344-5.554-5-1.563-2.66-1.028-5.726c.36-2.051 1.301-4.38 2.829-6.973l14.382-24.508 7.762 4.555-15.078 25.683q-1.266 2.152-1.465 3.747c-.129 1.066.363 1.921 1.469 2.574q1.67.978 2.941.012 1.271-.967 2.535-3.118l15.075-25.683 7.8 4.582-14.382 24.504c-1.528 2.597-3.102 4.55-4.735 5.855q-2.439 1.952-5.5 1.895-3.06-.053-7.05-2.399Zm0 0" fill="none"/>
        <path stroke-width="6.989" stroke="#0b4374" d="m300.791 54.235 7.801 7.356c1.95 1.84 3.414 3.605 4.394 5.305q1.477 2.535 1.09 5.464-.37 2.924-3.34 6.075-2.512 2.664-5.054 3.062-2.536.393-5.032-1.195 2.275 2.778 1.895 5.914c-.25 2.097-1.371 4.203-3.371 6.32q-8.368 8.878-17.422.336l-9.211-8.684Zm-3.39 19.438q2.115 1.991 3.773 1.75 1.67-.253 3.586-2.281c1.117-1.188 1.64-2.383 1.562-3.594q-.105-1.805-1.957-3.55l-1.144-1.083-7.11 7.54Zm-12.473 13.46q2.104 1.987 3.957 1.755c1.246-.153 2.582-.98 4-2.485q2.408-2.556 2.504-4.41.113-1.856-2.035-3.883l-1.364-1.285-8.472 8.98Zm0 0" fill="none"/>
        <path d="M82.138 103.038q1.33-1.482 1.781-2.437.44-.968.094-1.907-.357-.937-1.687-2.125L58.685 75.43l6.062-6.782 23.938 21.407c1.738 1.554 2.957 3.03 3.656 4.437q1.06 2.097.485 4.422-.563 2.316-3 5.047l-2.954 3.297Zm0 0" fill="#ffffff"/>
        <path d="M109.967 84.17q-3.674 2.814-6.719 3.266-3.035.438-5.672-1.203-2.656-1.651-5.422-5.25L74.857 58.452l7.125-5.484 18.141 23.624q1.514 1.988 2.922 2.766c.937.524 1.91.39 2.922-.39q1.53-1.185 1.11-2.72-.411-1.528-1.923-3.515l-18.14-23.625 7.172-5.515 17.296 22.53c1.844 2.4 3.063 4.594 3.657 6.594q.903 3-.297 5.813c-.805 1.875-2.43 3.758-4.875 5.64m0 0" fill="#ffffff"/>
        <path d="m107.12 35.845 9.468-4.344c3.243-1.489 5.946-2.25 8.126-2.282q3.28-.045 5.593 2 2.31 2.05 4.297 6.344l6.219 13.578q2 4.348 2.047 7.453.045 3.096-2.078 5.594-2.128 2.484-6.922 4.688l-9.578 4.39Zm24.125 27.312q1.78-.825 2.39-1.75a2.55 2.55 0 0 0 .391-2.031q-.234-1.108-1.125-3.047l-7.484-16.313q-.815-1.792-1.5-2.625a2.34 2.34 0 0 0-1.75-.89q-1.06-.077-2.875.75l-1.25.578 11.89 25.922Zm0 0" fill="#ffffff"/>
        <path d="M163.343 59.644q-6.516 1.359-10.015-1.407-3.486-2.777-4.844-9.36l-3.125-14.968c-.914-4.375-.672-7.86.734-10.453 1.399-2.602 4.266-4.36 8.61-5.266 4.375-.906 7.726-.441 10.062 1.391q3.516 2.735 4.875 9.25l3.125 14.969q1.359 6.58-.75 10.531-2.11 3.954-8.672 5.313m-1.312-6.313q1.874-.387 2.219-1.781c.226-.938.19-2.133-.11-3.594l-4.047-19.406q-.469-2.232-1.343-3.344c-.575-.75-1.485-.992-2.735-.734q-1.8.376-2.14 1.765-.329 1.394.14 3.578l4.047 19.407q.45 2.19 1.266 3.343.81 1.16 2.703.766m0 0" fill="#ffffff"/>
        <path d="M208.178 58.085q-6.675-.893-9-4.75-2.333-3.875-1.453-10.485l1.953-14.703q.901-6.762 4.125-9.844 3.234-3.093 9.937-2.203 6.388.846 8.656 4.281 2.264 3.44 1.516 9.078l-.469 3.532-8.812-1.172.547-4.078q.31-2.373-.032-3.703-.345-1.325-2.25-1.579-1.922-.247-2.703 1-.783 1.254-1.094 3.61l-2.546 19.203q-.329 2.426.14 3.797c.313.906 1.086 1.445 2.328 1.61q1.859.251 2.563-.954.703-1.216 1.031-3.64l.563-4.297 8.812 1.172-.469 3.53q-.766 5.754-3.859 8.594c-2.062 1.895-5.227 2.563-9.484 2m0 0" fill="#ffffff"/>
        <path d="m238.692 21.761 8.594 2.938-11.328 33.125 8.969 3.062-1.985 5.828-17.562-6Zm0 0" fill="#ffffff"/>
        <path d="M257.043 75.01q-3.987-2.345-5.547-5c-1.032-1.774-1.371-3.676-1.016-5.719q.546-3.075 2.844-7l14.375-24.484 7.75 4.546-15.078 25.672q-1.267 2.157-1.47 3.75c-.124 1.063.364 1.914 1.47 2.563q1.67.983 2.937.016 1.28-.954 2.547-3.11l15.078-25.672 7.797 4.578-14.375 24.485c-1.531 2.613-3.117 4.57-4.75 5.875q-2.439 1.95-5.5 1.89-3.065-.046-7.062-2.39m0 0" fill="#ffffff"/>
        <path d="m300.789 54.235 7.812 7.359q2.92 2.754 4.39 5.297 1.466 2.55 1.079 5.469-.377 2.924-3.344 6.078-2.502 2.66-5.047 3.047-2.53.391-5.015-1.172 2.262 2.765 1.875 5.906c-.25 2.094-1.371 4.195-3.36 6.313q-8.379 8.872-17.437.343l-9.203-8.687Zm-3.39 19.437q2.121 2.003 3.78 1.75 1.653-.247 3.563-2.281c1.113-1.188 1.633-2.383 1.562-3.594q-.095-1.81-1.937-3.562l-1.156-1.079-7.11 7.547Zm-12.485 13.453q2.122 1.997 3.969 1.75 1.857-.234 3.984-2.484 2.403-2.55 2.515-4.39.125-1.858-2.03-3.891l-1.376-1.297-8.469 8.984Zm0 0" fill="#ffffff"/>
        <g clip-path="url(#5b34b731-449b-423d-9a7e-45497c0982a2)">
            <g clip-path="url(#d0200b34-db9b-4f82-8ee5-887d206769f1)">
                <path stroke-width="30" stroke="#31629a" d="M187.484 47.597c-78.847 0-142.765 63.918-142.765 142.762 0 78.848 63.918 142.766 142.765 142.766 78.844 0 142.762-63.918 142.762-142.766 0-78.844-63.918-142.762-142.762-142.762Zm0 0" fill="none"/>
            </g>
        </g>
        <g clip-path="url(#7f73a5b2-a476-4a1b-bbd2-af87a1698cf4)">
            <g clip-path="url(#45681dac-6a2a-420d-899b-5579fe4151c8)">
                <path stroke-width="45" stroke="#173f72" d="M187.496 5.726C85.527 5.726 2.863 88.39 2.863 190.36c0 101.973 82.664 184.637 184.633 184.637 101.973 0 184.637-82.664 184.637-184.637 0-101.969-82.664-184.633-184.637-184.633Zm0 0" fill="none"/>
            </g>
        </g>
        <g clip-path="url(#0eba5ce5-5877-47b8-9ee9-71f957440ebd)">
            <path stroke-miterlimit="10" stroke-width="2.656" stroke="#000000" d="M75.523 58.985c31.133 121.91-3.761 252.23-3.761 252.23 120.52-31.55 228.394 2.086 225.75-1.754-25.758-139.453 18.933-239.586 13.254-239.422C171.426 97.301 75.773 55.617 75.523 58.985Zm0 0" fill="none"/>
        </g>
        <g clip-path="url(#b2cbbb52-c48c-4f41-9d5c-1308cda0b747)">
            <path d="M279.188 170.371c-1.7-16.293-10.692-33.418-27.235-38.793a68 68 0 0 0-9.437-2.113 59 59 0 0 0-9.133-.64c-2.953 0-5.906.25-8.828.695a58 58 0 0 0-8.465 1.949 65 65 0 0 0-8.106 3.062 73 73 0 0 0-7.71 4.094c-2.536 1.531-4.958 3.23-7.297 5.012a100 100 0 0 0-6.88 5.82 102 102 0 0 0-6.402 6.543 123 123 0 0 0-5.933 7.156 150 150 0 0 0-5.43 7.63 131 131 0 0 0-4.871 8.023 146 146 0 0 0-4.344 8.324 157 157 0 0 0-3.762 8.492 131 131 0 0 0-3.144 8.578 130 130 0 0 0-2.535 8.52c-1.031 3.925-2.09 7.851-2.09 11.945 0 12.531 7.828 23.168 18.855 27.43q-2.383.29-4.761.418c-32.47 2.03-50.739-23.032-50.516-55.36 2.758-43.496 36.73-87.433 65.383-118.68l-1.863-1.89-12.95 12.195c-29.71 29.824-58.28 63.852-66.914 106.453-3.035 14.926-2.535 31.356 5.57 44.696 13.141 23.554 43.298 30.629 67.665 22.527 12.113-3.898 19.828-7.574 28.597-15.902 6.016-5.375 9.801-13.172 9.801-21.887 0-16.234-13.172-29.406-29.406-29.406-6.766 0-12.973 2.312-17.93 6.129 8.824-16.793 21.078-31.856 37.008-41.66 14.98-8.965 32.383-13.977 48.004-7.825 9.133 4.207 16.93 10.805 19.547 21.387 8.437 41.852-21.106 90.223-44.301 123.996l2.117 1.617c8.547-10.246 16.653-20.883 24.196-32.023 18.687-28.32 37.37-60.926 33.5-96.512m0 0" fill="#072c4b"/>
        </g>
        <path d="M82.125 103.038q1.33-1.482 1.781-2.437.44-.968.094-1.907-.357-.937-1.687-2.125L58.672 75.43l6.062-6.782 23.938 21.407c1.738 1.554 2.957 3.03 3.656 4.437q1.06 2.097.484 4.422-.561 2.316-3 5.047l-2.953 3.297Zm0 0" fill="#ffffff"/>
        <path d="M109.954 84.17q-3.674 2.814-6.719 3.266-3.035.438-5.672-1.203-2.656-1.651-5.422-5.25L74.844 58.452l7.125-5.484 18.141 23.624q1.513 1.988 2.922 2.766c.937.524 1.91.39 2.922-.39q1.53-1.185 1.11-2.72-.411-1.528-1.923-3.515l-18.14-23.625 7.171-5.515 17.297 22.53c1.844 2.4 3.063 4.594 3.657 6.594q.903 3-.297 5.813c-.805 1.875-2.43 3.758-4.875 5.64m0 0" fill="#ffffff"/>
        <path d="m107.107 35.845 9.469-4.344c3.242-1.489 5.945-2.25 8.125-2.282q3.28-.045 5.593 2 2.31 2.05 4.297 6.344l6.219 13.578q2 4.348 2.047 7.453.045 3.096-2.078 5.594-2.128 2.484-6.922 4.688l-9.578 4.39Zm24.125 27.312q1.78-.825 2.39-1.75a2.55 2.55 0 0 0 .391-2.031q-.234-1.108-1.125-3.047l-7.484-16.313q-.815-1.792-1.5-2.625a2.34 2.34 0 0 0-1.75-.89q-1.06-.077-2.875.75l-1.25.578 11.89 25.922Zm0 0" fill="#ffffff"/>
        <path d="M163.33 59.644q-6.516 1.359-10.015-1.407-3.486-2.777-4.844-9.36l-3.125-14.968c-.914-4.375-.672-7.86.734-10.453 1.399-2.602 4.266-4.36 8.61-5.266 4.375-.906 7.726-.441 10.062 1.391q3.516 2.735 4.875 9.25l3.125 14.969q1.359 6.58-.75 10.531-2.11 3.954-8.672 5.313m-1.312-6.313q1.874-.387 2.219-1.781c.226-.938.19-2.133-.11-3.594L160.08 28.55q-.469-2.232-1.344-3.344c-.574-.75-1.484-.992-2.734-.734q-1.8.376-2.14 1.765-.329 1.394.14 3.578l4.047 19.407q.45 2.19 1.266 3.343.81 1.16 2.703.766m0 0" fill="#ffffff"/>
        <path d="M208.166 58.085q-6.675-.893-9-4.75-2.333-3.875-1.453-10.485l1.953-14.703q.902-6.762 4.125-9.844 3.234-3.093 9.937-2.203 6.388.846 8.656 4.281 2.264 3.44 1.516 9.078l-.469 3.532-8.812-1.172.547-4.078q.31-2.373-.032-3.703-.345-1.325-2.25-1.579-1.921-.247-2.703 1-.783 1.254-1.094 3.61l-2.546 19.203q-.329 2.426.14 3.797c.313.906 1.086 1.445 2.328 1.61q1.859.251 2.563-.954.703-1.216 1.031-3.64l.563-4.297 8.812 1.172-.469 3.53q-.766 5.754-3.859 8.594c-2.062 1.895-5.227 2.563-9.484 2m0 0" fill="#ffffff"/>
        <path d="m238.68 21.761 8.593 2.938-11.328 33.125 8.969 3.062-1.985 5.828-17.562-6Zm0 0" fill="#ffffff"/>
        <path d="M257.03 75.01q-3.987-2.345-5.547-5c-1.032-1.774-1.371-3.676-1.016-5.719q.546-3.075 2.844-7l14.375-24.484 7.75 4.546-15.078 25.672q-1.268 2.157-1.47 3.75c-.124 1.063.364 1.914 1.47 2.563q1.67.983 2.937.016 1.28-.954 2.547-3.11l15.078-25.672 7.797 4.578-14.375 24.485c-1.531 2.613-3.117 4.57-4.75 5.875q-2.439 1.95-5.5 1.89-3.065-.046-7.062-2.39m0 0" fill="#ffffff"/>
        <path d="m300.775 54.235 7.812 7.359q2.92 2.754 4.39 5.297 1.466 2.55 1.079 5.469-.377 2.924-3.344 6.078-2.502 2.66-5.047 3.047-2.53.391-5.015-1.172 2.262 2.765 1.875 5.906c-.25 2.094-1.371 4.195-3.36 6.313q-8.379 8.872-17.437.343l-9.203-8.687Zm-3.39 19.437q2.121 2.003 3.78 1.75 1.653-.247 3.563-2.281c1.113-1.188 1.633-2.383 1.562-3.594q-.095-1.81-1.937-3.562l-1.156-1.079-7.11 7.547ZM284.9 87.125q2.122 1.997 3.969 1.75 1.857-.234 3.984-2.484 2.403-2.55 2.515-4.39.125-1.858-2.03-3.891l-1.376-1.297-8.469 8.984Zm0 0" fill="#ffffff"/>
        <path d="m106.723 299.396 8.906 5.36q4.56 2.751 6.454 5.421 1.903 2.672 1.515 5.719-.392 3.048-2.812 7.094l-7.688 12.796q-2.454 4.078-4.984 5.875-2.534 1.794-5.781 1.438-3.252-.344-7.782-3.063l-9-5.421Zm-8.922 35.25q1.7 1.013 2.797 1a2.55 2.55 0 0 0 1.875-.828q.78-.815 1.875-2.625l9.219-15.36q1.031-1.687 1.313-2.719a2.44 2.44 0 0 0-.235-1.953q-.532-.918-2.219-1.937l-1.187-.703-14.656 24.39Zm0 0" fill="#ffffff"/>
        <path d="M136.295 359.284q-4.423-1.33-6.578-3.531-2.144-2.205-2.36-5.297-.222-3.106 1.079-7.438l8.093-27.172 8.61 2.563-8.485 28.484q-.72 2.39-.53 3.985.185 1.58 2.046 2.14 1.841.55 2.844-.687c.664-.82 1.238-2.032 1.719-3.625l8.484-28.485 8.656 2.578-8.094 27.172c-.867 2.887-1.933 5.149-3.203 6.797q-1.891 2.483-4.875 3.156-2.988.67-7.406-.64m0 0" fill="#ffffff"/>
        <path d="m190.18 325.23 9.046-.733 2.844 34.828 9.406-.766.5 6.125-18.453 1.5Zm0 0" fill="#ffffff"/>
        <path d="m223.142 320.309 9.875-3.079 19.609 36.922-8 2.5-3.906-7.875-5.75 1.813 1.234 8.703-8.187 2.563Zm15.14 23.546-6.875-14.656 2.703 15.953Zm0 0" fill="#ffffff"/>
        <path d="M280.157 340.61q-5.719 3.456-9.968 1.922-4.236-1.546-7.672-7.25l-7.688-12.657c-2.344-3.875-3.32-7.285-2.937-10.234q.58-4.418 6.36-7.922 5.502-3.34 9.405-2.094 3.905 1.253 6.86 6.11l1.844 3.031-7.61 4.61-2.14-3.516q-1.22-2.028-2.297-2.86-1.091-.825-2.75.188-1.64.986-1.47 2.453.175 1.47 1.423 3.516l10.015 16.53c.844 1.388 1.664 2.34 2.47 2.86q1.217.786 2.827-.187 1.593-.983 1.375-2.36c-.148-.925-.64-2.082-1.484-3.468l-2.235-3.688 7.61-4.61 1.828 3.032q3.012 4.956 2.375 9.11-.645 4.142-6.14 7.484m0 0" fill="#ffffff"/>
    </g>
</svg>
